<?xml version="1.0" encoding="UTF-8" standalone="no"?>
<svg
   xmlns:dc="http://purl.org/dc/elements/1.1/"
   xmlns:cc="http://creativecommons.org/ns#"
   xmlns:rdf="http://www.w3.org/1999/02/22-rdf-syntax-ns#"
   xmlns:svg="http://www.w3.org/2000/svg"
   xmlns="http://www.w3.org/2000/svg"
   xmlns:sodipodi="http://sodipodi.sourceforge.net/DTD/sodipodi-0.dtd"
   xmlns:inkscape="http://www.inkscape.org/namespaces/inkscape"
   data-name="Layer 1"
   width="1177.82"
   height="724.47"
   viewBox="0 0 1177.82 724.47"
   version="1.1"
   id="svg166"
   sodipodi:docname="historia.svg"
   inkscape:version="0.92.4 (5da689c313, 2019-01-14)">
  <metadata
     id="metadata172">
    <rdf:RDF>
      <cc:Work
         rdf:about="">
        <dc:format>image/svg+xml</dc:format>
        <dc:type
           rdf:resource="http://purl.org/dc/dcmitype/StillImage" />
      </cc:Work>
    </rdf:RDF>
  </metadata>
  <defs
     id="defs170" />
  <sodipodi:namedview
     pagecolor="#ffffff"
     bordercolor="#666666"
     borderopacity="1"
     objecttolerance="10"
     gridtolerance="10"
     guidetolerance="10"
     inkscape:pageopacity="0"
     inkscape:pageshadow="2"
     inkscape:window-width="1366"
     inkscape:window-height="705"
     id="namedview168"
     showgrid="false"
     inkscape:zoom="0.60639923"
     inkscape:cx="617.83231"
     inkscape:cy="385.02387"
     inkscape:window-x="-8"
     inkscape:window-y="-8"
     inkscape:window-maximized="1"
     inkscape:current-layer="layer2" />
  <title
     id="title2">under construction</title>
  <g
     inkscape:groupmode="layer"
     id="layer2"
     inkscape:label="Layer 2"
     style="display:inline">
    <path
       style="display:inline;opacity:0.1;fill:#6c63ff"
       d="m 1188.91,553.07 a 241.36,241.36 0 0 1 -7.07,58.24 q -2.38,9.63 -5.53,18.86 a 222.72,222.72 0 0 1 -8.92,22.32 q -2.55,5.52 -5.39,10.82 a 145.56,145.56 0 0 1 -12.17,58.49 150.79,150.79 0 0 1 -73.18,75.4 153.93,153.93 0 0 1 -65.33,15 H 234.68 a 195.68,195.68 0 0 1 -98.42,-26.31 l -0.46,-0.26 q -6.39,-3.74 -12.46,-7.92 A 195.41,195.41 0 0 1 97.77,756.63 190.28,190.28 0 0 1 69.66,721.8 185.86,185.86 0 0 1 41.07,622.57 c -18.95,-33.25 -30,-73.08 -30,-115.88 0,-54 17.56,-103.26 46.41,-140.55 a 197.6,197.6 0 0 1 19.71,-21.93 183.42,183.42 0 0 1 22.54,-18.45 175.38,175.38 0 0 1 20,-12 c 2.89,-1.47 5.79,-2.86 8.74,-4.15 2.59,-1.15 5.21,-2.22 7.86,-3.23 q 4.77,-1.81 9.66,-3.33 4.89,-1.52 9.65,-2.66 7,-1.71 14.24,-2.78 c 4,-0.59 8,-1 12,-1.31 3.18,-0.24 6.39,-0.37 9.62,-0.41 h 1.75 c 3.56,0 7.1,0.14 10.61,0.38 0.37,-0.74 0.77,-1.49 1.14,-2.22 1.4,-2.67 2.85,-5.33 4.31,-7.93 a 0.25,0.25 0 0 1 0,-0.07 c 0.25,-0.46 0.5,-0.91 0.76,-1.35 1.18,-2.13 2.41,-4.24 3.67,-6.33 0.58,-1 1.15,-1.94 1.74,-2.88 a 7.66,7.66 0 0 1 0.41,-0.68 q 0.9,-1.5 1.83,-3 4.63,-7.4 9.63,-14.54 l 0.85,-1.22 c 0.52,-0.74 1,-1.46 1.58,-2.2 1.38,-1.93 2.8,-3.87 4.23,-5.77 1,-1.36 2,-2.71 3.08,-4 q 3.9,-5 8,-10 4.1,-5 8.52,-9.87 c 0.4,-0.45 0.8,-0.89 1.22,-1.33 l 4.27,-4.66 v 0 c 0.21,-0.22 0.39,-0.42 0.59,-0.62 v 0 c 0.51,-0.55 1,-1.1 1.55,-1.63 2.29,-2.43 4.64,-4.81 7,-7.18 a 381.2,381.2 0 0 1 38.3,-33.37 c 0.53,-0.42 1.07,-0.82 1.6,-1.22 2.54,-1.91 5.12,-3.8 7.7,-5.66 a 405.31,405.31 0 0 1 44.41,-27.7 c 1.06,-0.61 2.14,-1.18 3.23,-1.74 a 424,424 0 0 1 42.49,-19.56 c 7.91,-3.13 16,-6.07 24.14,-8.76 5.42,-1.78 10.86,-3.47 16.37,-5.06 Q 459.4,102 472.5,99.05 a 463.35,463.35 0 0 1 78.24,-10.66 q 12,-0.61 24.27,-0.63 a 465,465 0 0 1 117,14.8 4.22,4.22 0 0 0 3.63,1.89 H 699 c 1.46,0.4 2.91,0.8 4.37,1.22 q 12.23,3.52 24.11,7.69 l 2,0.72 a 430.44,430.44 0 0 1 56.91,25 410.69,410.69 0 0 1 47.65,29.44 q 3.51,2.52 6.92,5.08 4.14,-2.65 8.42,-5.08 a 165.62,165.62 0 0 1 34.88,-14.87 159.1,159.1 0 0 1 78.24,-3.06 c 33.25,7.05 63.35,24.55 87.66,49.44 a 204.55,204.55 0 0 1 26.29,33.38 c 0.55,0.86 1.1,1.73 1.63,2.61 a 220,220 0 0 1 16.74,33.37 c 0.17,0.43 0.34,0.83 0.49,1.25 a 231.09,231.09 0 0 1 10.3,33.35 c 0.12,0.58 0.26,1.15 0.38,1.73 a 240.11,240.11 0 0 1 4.92,33.37 c 0,0.4 0,0.81 0.08,1.23 q 0.63,8.71 0.64,17.6 c 0,5.3 -0.18,10.56 -0.51,15.78 0,0.57 -0.08,1.16 -0.13,1.75 -0.09,1.51 -0.22,3 -0.35,4.52 a 189.79,189.79 0 0 1 21.38,20.17 q 4.37,4.77 8.46,9.9 a 210.61,210.61 0 0 1 21.8,33.37 c 16.91,31.92 26.63,69.47 26.63,109.66 z"
       id="path4"
       inkscape:connector-curvature="0"
       transform="translate(-11.09,-87.76)" />
  </g>
  <g
     inkscape:groupmode="layer"
     id="layer1"
     inkscape:label="Layer 1"
     style="display:inline">
    <g
       style="display:inline;opacity:0.2"
       id="g22"
       transform="matrix(1.0295971,0,0,1.0843051,-3.6910495,-61.076589)">
      <path
         d="M 691.37,751.79 A 19,19 0 0 1 691,755 q -10.44,-1.66 -21,-3 c 0,-0.28 0,-0.57 0,-0.86 a 16.88,16.88 0 0 1 2.5,-8.48 c 2.06,-3.26 5.19,-5.3 8.64,-5.19 3.45,0.11 6.44,2.34 8.29,5.71 a 16.87,16.87 0 0 1 1.94,8.61 z"
         transform="translate(-11.09,-87.76)"
         id="path8"
         inkscape:connector-curvature="0"
         style="fill:#3f3d56" />
      <ellipse
         cx="681.21002"
         cy="734.33002"
         rx="14.01"
         ry="10.7"
         transform="rotate(-88.19,630.4138,696.16939)"
         id="ellipse10"
         style="fill:#3f3d56" />
      <ellipse
         cx="681.75"
         cy="717.21002"
         rx="14.01"
         ry="10.7"
         transform="rotate(-88.19,630.95635,679.04627)"
         id="ellipse12"
         style="fill:#3f3d56" />
      <ellipse
         cx="682.28998"
         cy="700.09003"
         rx="14.01"
         ry="10.7"
         transform="rotate(-88.19,631.49391,661.92831)"
         id="ellipse14"
         style="fill:#3f3d56" />
      <ellipse
         cx="682.83002"
         cy="682.96997"
         rx="14.01"
         ry="10.7"
         transform="rotate(-88.19,632.03147,644.81034)"
         id="ellipse16"
         style="fill:#3f3d56" />
      <path
         d="m 646.47,564.55 a 49.66,49.66 0 0 1 -3.8,-6 l 28.26,-3.73 -30.42,-0.73 a 51.38,51.38 0 0 1 0.31,-40.64 l 40.12,22.45 -36.75,-28.84 a 51.28,51.28 0 1 1 82.84,60 50.8,50.8 0 0 1 5.55,9.53 l -37.09,17.8 39.33,-11.83 a 51.34,51.34 0 0 1 -9.82,47.91 51.28,51.28 0 1 1 -80.56,-2.54 51.28,51.28 0 0 1 2,-63.38 z"
         transform="translate(-11.09,-87.76)"
         id="path18"
         inkscape:connector-curvature="0"
         style="fill:#6c63ff" />
      <path
         d="m 737,599.13 a 51,51 0 0 1 -12,31.34 51.28,51.28 0 1 1 -80.56,-2.54 C 637.87,619 737.18,593.38 737,599.13 Z"
         transform="translate(-11.09,-87.76)"
         id="path20"
         inkscape:connector-curvature="0"
         style="opacity:0.1" />
    </g>
    <g
       style="display:inline;opacity:0.2"
       id="g38"
       transform="matrix(1.0295971,0,0,1.0843051,-3.6910495,-61.076589)">
      <path
         d="M 539.37,751.79 A 19,19 0 0 1 539,755 q -10.44,-1.66 -21,-3 c 0,-0.28 0,-0.57 0,-0.86 a 16.88,16.88 0 0 1 2.5,-8.48 c 2.06,-3.26 5.19,-5.3 8.64,-5.19 3.45,0.11 6.44,2.34 8.29,5.71 a 16.87,16.87 0 0 1 1.94,8.61 z"
         transform="translate(-11.09,-87.76)"
         id="path24"
         inkscape:connector-curvature="0"
         style="fill:#3f3d56" />
      <ellipse
         cx="529.21002"
         cy="734.33002"
         rx="14.01"
         ry="10.7"
         transform="rotate(-88.19,478.41047,696.17712)"
         id="ellipse26"
         style="fill:#3f3d56" />
      <ellipse
         cx="529.75"
         cy="717.21002"
         rx="14.01"
         ry="10.7"
         transform="rotate(-88.19,478.95303,679.054)"
         id="ellipse28"
         style="fill:#3f3d56" />
      <ellipse
         cx="530.28998"
         cy="700.09003"
         rx="14.01"
         ry="10.7"
         transform="rotate(-88.19,479.49058,661.93604)"
         id="ellipse30"
         style="fill:#3f3d56" />
      <ellipse
         cx="530.83002"
         cy="682.96997"
         rx="14.01"
         ry="10.7"
         transform="rotate(-88.19,480.02814,644.81808)"
         id="ellipse32"
         style="fill:#3f3d56" />
      <path
         d="m 494.47,564.55 a 49.66,49.66 0 0 1 -3.8,-6 l 28.26,-3.73 -30.42,-0.73 a 51.38,51.38 0 0 1 0.31,-40.64 l 40.12,22.45 -36.75,-28.84 a 51.28,51.28 0 1 1 82.84,60 50.8,50.8 0 0 1 5.55,9.53 l -37.09,17.8 39.33,-11.83 a 51.34,51.34 0 0 1 -9.82,47.91 51.28,51.28 0 1 1 -80.56,-2.54 51.28,51.28 0 0 1 2,-63.38 z"
         transform="translate(-11.09,-87.76)"
         id="path34"
         inkscape:connector-curvature="0"
         style="fill:#6c63ff" />
      <path
         d="m 585,599.13 a 51,51 0 0 1 -12,31.34 51.28,51.28 0 1 1 -80.56,-2.54 C 485.87,619 585.18,593.38 585,599.13 Z"
         transform="translate(-11.09,-87.76)"
         id="path36"
         inkscape:connector-curvature="0"
         style="opacity:0.1" />
    </g>
    <g
       style="display:inline;opacity:0.2"
       id="g54"
       transform="matrix(1.0295971,0,0,1.0843051,-3.6910495,-61.076589)">
      <path
         d="m 954.57,762.73 a 37.3,37.3 0 0 1 -0.73,6.08 q -20.1,-3.21 -40.49,-5.74 c 0,-0.54 0,-1.09 0,-1.65 a 32.5,32.5 0 0 1 4.82,-16.33 c 4,-6.27 10,-10.2 16.63,-10 6.63,0.2 12.4,4.51 16,11 a 32.53,32.53 0 0 1 3.77,16.64 z"
         transform="translate(-11.09,-87.76)"
         id="path40"
         inkscape:connector-curvature="0"
         style="fill:#3f3d56" />
      <ellipse
         cx="935"
         cy="729.10999"
         rx="26.98"
         ry="20.610001"
         transform="rotate(-88.19,884.21917,690.94566)"
         id="ellipse42"
         style="fill:#3f3d56" />
      <ellipse
         cx="936.03998"
         cy="696.15002"
         rx="26.98"
         ry="20.610001"
         transform="rotate(-88.19,885.25854,657.98576)"
         id="ellipse44"
         style="fill:#3f3d56" />
      <ellipse
         cx="937.08002"
         cy="663.20001"
         rx="26.98"
         ry="20.610001"
         transform="rotate(-88.19,886.29792,625.02586)"
         id="ellipse46"
         style="fill:#3f3d56" />
      <ellipse
         cx="938.12"
         cy="630.23999"
         rx="26.98"
         ry="20.610001"
         transform="matrix(0.03,-1,1,0.03,267.53,1460.26)"
         id="ellipse48"
         style="fill:#3f3d56" />
      <path
         d="m 868.12,402.27 a 99.27,99.27 0 0 1 -7.31,-11.53 l 54.4,-7.18 -58.55,-1.41 a 98.9,98.9 0 0 1 0.58,-78.24 l 77.25,43.21 -70.74,-55.52 a 98.72,98.72 0 1 1 159.47,115.56 98.71,98.71 0 0 1 10.69,18.35 L 962.5,459.8 1038.21,437 a 98.75,98.75 0 0 1 -18.83,92.15 98.72,98.72 0 1 1 -155.1,-4.89 98.75,98.75 0 0 1 3.84,-122 z"
         transform="translate(-11.09,-87.76)"
         id="path50"
         inkscape:connector-curvature="0"
         style="fill:#6c63ff" />
      <path
         d="m 1042.42,468.83 a 98.34,98.34 0 0 1 -23,60.34 98.72,98.72 0 1 1 -155.1,-4.89 c -12.74,-17.21 178.45,-66.52 178.1,-55.45 z"
         transform="translate(-11.09,-87.76)"
         id="path52"
         inkscape:connector-curvature="0"
         style="opacity:0.1" />
    </g>
  </g>
  <g
     inkscape:groupmode="layer"
     id="layer3"
     inkscape:label="Layer 3">
    <path
       style="display:inline;opacity:0.1;fill:#6c63ff;stroke-width:1.05659711"
       d="m 1092.6445,704.16093 c 0,7.4058 -24.2264,14.34535 -66.5017,20.30903 H 226.51656 A 201.47155,212.17683 0 0 1 125.18361,695.94189 L 124.71,695.65997 c 12.14925,-4.66251 34.07966,-9.01057 63.92768,-12.93576 v 0 l 1.33848,-0.17348 c 13.38476,-1.72405 28.3448,-3.36135 44.69481,-4.91191 0.41183,0 0.83397,-0.0651 1.24581,-0.11927 v 0 q 19.45938,-1.82163 41.4001,-3.41556 c 0.46332,0 0.91634,-0.0867 1.37966,-0.10843 q 8.46328,-0.63974 17.27664,-1.21442 v 0 l 2.26511,-0.15181 c 42.77976,-2.7975 91.40763,-5.03117 144.14359,-6.50583 h 0.0618 q 11.07847,-0.32529 22.39374,-0.57468 12.58168,-0.31445 25.47223,-0.55299 c 6.55853,-0.15181 13.19943,-0.26024 19.86093,-0.36867 h 0.15444 c 30.05394,-0.47709 61.10658,-0.71564 92.85936,-0.71564 78.51707,0 152.73042,1.50718 218.49079,4.21795 h 0.18533 c 10.11064,0.41203 20.03595,0.86744 29.71417,1.33369 l 8.23677,0.41204 q 16.38089,0.82407 31.91751,1.76742 v 0 c 121.80135,7.29737 200.91555,19.14882 200.91555,32.51831 z"
       id="path6"
       inkscape:connector-curvature="0" />
    <path
       style="display:inline;fill:#f1c0c0;stroke-width:1.09241354"
       d="m 149.0815,322.64495 -22.18399,348.61705 11.16684,-0.035 h 15.74293 l 19.90736,-340.55506 -14.77615,-5.19147 z"
       id="polygon56"
       inkscape:connector-curvature="0" />
    <path
       style="display:inline;opacity:0.1;stroke-width:1.09241354"
       d="m 158.93849,325.48044 -19.68282,345.74653 h 14.55161 l 19.90736,-340.55506 z"
       id="polygon58"
       inkscape:connector-curvature="0" />
    <polygon
       style="display:inline;fill:#f1c0c0"
       points="126.91,679.26 606.76,715.98 607.17,716.01 1071.56,687.45 1071.91,687.43 1071.91,667.82 560.21,658.43 133.3,658.02 130.18,658.02 129.84,660.22 "
       id="polygon60"
       transform="matrix(1.0644982,0,0,1.1210607,-41.101925,-87.393979)" />
    <polygon
       style="display:inline;opacity:0.1"
       points="132.39,658.57 129.84,660.22 126.91,679.26 606.76,715.98 607.17,716.01 1071.56,687.45 1071.91,687.07 1071.91,668.23 1071.5,668.23 606.76,683.75 133.3,658.02 133.23,658.02 "
       id="polygon62"
       transform="matrix(1.0644982,0,0,1.1210607,-41.101925,-87.393979)" />
    <polygon
       style="display:inline;opacity:0.1"
       points="126.91,679.26 606.76,715.98 606.76,683.75 132.39,658.57 129.84,660.22 "
       id="polygon64"
       transform="matrix(1.0644982,0,0,1.1210607,-41.101925,-87.393979)" />
    <path
       style="display:inline;fill:#f1c0c0;stroke-width:1.09241354"
       d="m 604.79276,213.98088 -17.38335,14.65261 -6.96082,447.75211 19.12771,2.43261 0.32018,0.0438 h 19.12977 l 2.28702,-431.00189 421.68063,148.33692 7.1104,264.12367 15.3937,1.81516 5.2144,0.61745 L 1058.6412,377.87909 617.83286,214.9005 Z"
       id="polygon66"
       inkscape:connector-curvature="0" />
    <polygon
       style="display:inline;opacity:0.1"
       points="1039.55,668.59 1028.21,426.47 620.65,291.7 622.28,299.05 1018.41,431.37 1025.09,666.97 "
       id="polygon68"
       transform="matrix(1.0644982,0,0,1.1210607,-41.101925,-87.393979)" />
    <path
       style="display:inline;opacity:0.1;stroke-width:1.09241354"
       d="m 604.79276,213.98088 -17.38335,14.65261 -6.96082,447.75211 19.12771,2.43261 z"
       id="polygon70"
       inkscape:connector-curvature="0" />
    <polygon
       style="display:inline;fill:#f1c0c0"
       points="766.76,480.61 1021.23,530.74 1032.88,526.07 1032.84,525.25 1032.08,509 621.57,426.05 621.42,451.99 766.71,480.6 "
       id="polygon72"
       transform="matrix(1.0644982,0,0,1.1210607,-41.101925,-87.393979)" />
    <polygon
       style="display:inline;opacity:0.1"
       points="1032.88,526.07 1032.84,525.25 766.76,480.61 1021.23,530.74 "
       id="polygon74"
       transform="matrix(1.0644982,0,0,1.1210607,-41.101925,-87.393979)" />
    <polygon
       style="display:inline;fill:#f1c0c0"
       points="782.45,677.89 800.34,677.29 811.6,676.91 808.1,353.69 800.34,351.11 798.64,350.56 776.49,350.56 780.42,566.9 "
       id="polygon76"
       transform="matrix(1.0644982,0,0,1.1210607,-41.101925,-87.393979)" />
    <polygon
       style="display:inline;opacity:0.1"
       points="800.34,677.29 800.34,350.51 776.65,350.51 776.65,350.56 780.42,566.9 782.45,677.89 "
       id="polygon78"
       transform="matrix(1.0644982,0,0,1.1210607,-41.101925,-87.393979)" />
    <path
       style="display:inline;fill:#3f3d56;stroke-width:1.09241354"
       d="m 487.16595,367.54369 a 24.259914,25.548975 0 0 1 3.19349,2.18607 21.13029,22.253056 0 0 1 3.1935,3.68829 c 4.56669,6.22189 8.78211,13.45272 8.33502,21.30015 a 8.2285711,8.6657997 0 0 1 -2.37384,6.16584 c -1.88415,1.6928 -4.58798,1.77127 -7.05761,1.77127 -2.68254,0 -5.50346,0 -7.82406,-1.45738 -2.32061,-1.45737 -4.258,-4.29365 -7.0044,-4.2264 a 3.5873589,3.7779748 0 0 1 -1.17095,0 c -0.94741,-0.3251 -1.13902,-1.63674 -1.75642,-2.46633 -1.0645,-1.491 -3.31059,-1.12106 -4.98186,-0.47085 -1.67126,0.65022 -3.52348,1.62555 -5.17346,0.87443 a 5.3757159,5.6613569 0 0 1 -2.24609,-2.36543 c -3.94928,-6.72637 -4.79024,-14.80921 -5.53538,-22.62301 -0.45774,-4.75329 -3.9493,-20.96384 5.68441,-17.27554 4.25799,1.61432 8.23922,4.84298 12.11399,7.20841 z"
       id="path80"
       inkscape:connector-curvature="0" />
    <path
       style="display:inline;fill:#3f3d56;stroke-width:1.09241354"
       d="m 477.64934,369.14681 a 4.747662,4.9999311 0 0 0 5.84409,-0.24664 8.8034001,9.2711726 0 0 0 2.84221,-5.80709 c 1.0645,-0.34753 1.60739,1.12106 2.28868,2.01791 1.19222,1.52465 3.61929,1.50222 4.70508,3.12776 0.75579,1.12106 0.58546,2.67933 1.11771,3.94614 0.69193,1.63674 2.40577,2.48874 3.57672,3.8116 a 12.326889,12.981884 0 0 1 2.3419,4.92145 l 1.74577,5.51563 a 25.888597,27.264198 0 0 1 1.59676,7.14115 8.7821102,9.2487514 0 0 1 -2.02256,6.82727 c -2.34189,2.65691 -6.18473,2.93717 -9.58048,2.8587 a 12.326889,12.981884 0 0 1 -3.36382,-0.4148 c -3.01253,-0.98653 -4.93927,-4.18156 -5.73764,-7.39899 -0.79837,-3.21745 -0.71322,-6.59185 -1.18159,-9.88776 a 36.799702,38.755071 0 0 0 -2.66125,-9.39449 c -0.93676,-2.3318 -3.51284,-5.8071 -3.47026,-8.28464 0.76644,0 1.31997,0.7399 1.95868,1.2668 z"
       id="path82"
       inkscape:connector-curvature="0" />
    <path
       style="display:inline;fill:#be6f72;stroke-width:1.09241354"
       d="m 481.47088,357.79046 a 17.574865,18.508713 0 0 1 -0.86224,-4.92145 c 0,-3.36319 1.45836,-6.52458 2.92737,-9.52902 l -12.16721,1.73765 c -1.46902,0.213 -3.10834,0.52689 -3.93865,1.81611 a 4.2579927,4.4842431 0 0 0 0,4.13672 20.076436,21.143206 0 0 1 1.44772,4.00219 18.980003,19.988514 0 0 0 0.39386,3.5986 7.2385877,7.6232132 0 0 0 1.56482,2.32059 c 3.4809,4.05824 6.08892,8.84518 8.6863,13.58726 -0.0745,-0.13453 7.33439,-6.17704 7.03634,-8.15011 -0.17033,-1.12107 -2.30997,-2.46633 -2.99124,-3.54255 a 17.127776,18.037868 0 0 1 -2.09707,-5.05599 z"
       id="path84"
       inkscape:connector-curvature="0" />
    <polygon
       style="display:inline;fill:#f1c0c0"
       points="411.49,406.09 381.3,406.09 381.3,400.54 547.02,360.5 588.91,358.04 588.91,367.89 420.24,400.79 "
       id="polygon86"
       transform="matrix(1.0644982,0,0,1.1210607,-41.101925,-87.393979)" />
    <polygon
       style="display:inline;opacity:0.1"
       points="588.91,367.89 420.24,400.79 411.49,406.09 381.3,406.09 548.25,370.36 "
       id="polygon88"
       transform="matrix(1.0644982,0,0,1.1210607,-41.101925,-87.393979)" />
    <path
       style="display:inline;fill:#6c63ff;stroke-width:1.09241354"
       d="m 441.63736,627.46163 a 13.912992,14.652264 0 0 0 -16.92552,-3.78919 4.4602474,4.6972446 0 0 0 -1.55416,1.27802 c -1.0645,1.56948 -0.38323,3.73313 -0.28742,5.67256 0.24483,4.73088 -3.33188,8.57612 -6.54667,11.88325 -1.72448,1.77127 -3.48091,3.66587 -4.25798,6.07614 -0.77709,2.41029 -0.20226,5.47078 1.88415,6.72637 a 7.8453517,8.2622179 0 0 0 2.91673,0.852 31.477212,33.149767 0 0 0 10.32563,0.3027 c 3.39575,-0.68385 6.72763,-2.71297 8.19664,-6.00889 a 6.0144148,6.3339934 0 0 1 1.3732,-2.38786 c 1.87352,-1.55827 4.74766,0.26905 6.87665,-0.8408 1.75643,-0.91927 1.83094,-2.36543 1.85223,-4.27124 0.0639,-5.26898 -0.68127,-11.23303 -3.85348,-15.49306 z"
       id="path90"
       inkscape:connector-curvature="0" />
    <path
       style="display:inline;fill:#6c63ff;stroke-width:1.09241354"
       d="m 467.18532,627.25984 c 1.30934,3.63224 1.4903,7.58958 1.66061,11.46845 0.0958,2.24212 0.15968,4.64119 -0.98998,6.53579 -1.14966,1.89458 -3.39575,2.89234 -5.54603,3.36317 -4.43896,0.96412 -9.58049,0.056 -12.44398,-3.65465 -2.19287,-2.83628 -2.65061,-6.72636 -2.2461,-10.40344 0.34064,-3.01565 1.0645,-6.54699 -0.98998,-8.68823 -0.53225,-0.57173 -1.22417,-0.97531 -1.71384,-1.5919 -1.06451,-1.36769 -0.89418,-3.43044 -0.31936,-5.11204 a 21.087709,22.208214 0 0 0 1.67127,-5.05598 c 0.0852,-0.82958 14.4133,0.58295 15.73328,1.2668 1.799,0.93048 1.52224,2.48875 2.06513,4.37214 0.7558,2.62328 2.20351,4.98871 3.11898,7.49989 z"
       id="path92"
       inkscape:connector-curvature="0" />
    <path
       style="display:inline;fill:#3f3d56;stroke-width:1.09241354"
       d="m 469.81463,466.20825 c 2.81027,1.91701 3.89606,5.68378 4.33251,9.18149 1.20288,9.58507 -0.90483,19.27103 -1.0645,28.94579 -0.14903,13.55362 3.57672,27.35388 0.39386,40.4815 -1.90545,7.84742 -0.28741,16.81591 -2.07576,24.74181 -0.53225,2.35423 -1.51159,4.57393 -2.02256,6.92816 -1.0645,5.10083 0.0532,10.43708 1.55417,15.4258 a 15.126519,15.930273 0 0 1 0.90482,4.18155 14.285566,15.044635 0 0 1 -1.55416,6.32279 l -6.38699,15.90785 c -0.71321,1.78248 -3.52349,2.07396 -5.32249,2.30938 -3.38511,0.426 -7.16408,0.72869 -9.85726,-1.4798 -2.69318,-2.20849 -3.34252,-5.90799 -3.75768,-9.36086 a 136.25576,143.49578 0 0 1 -1.06449,-19.98851 15.637479,16.468383 0 0 0 -0.43645,-5.19051 c -0.58548,-1.91701 -1.87352,-3.57618 -2.2248,-5.60531 -0.44709,-2.62328 0.81966,-5.20172 1.28805,-7.84742 a 22.450267,23.643172 0 0 0 -0.10645,-7.27568 c -0.41516,-3.5874 -0.89418,-7.1748 -1.43708,-10.73977 -0.76644,-4.98871 0.33,-9.91017 1.0645,-14.9101 0.69193,-4.69725 -0.19161,-9.48418 -1.0645,-14.1478 a 37.033892,39.001704 0 0 1 -1.33062,11.21062 c -0.56418,1.78248 -1.3732,3.4865 -1.86287,5.30261 -2.18222,8.15012 2.46964,16.70381 1.80965,25.14539 -0.30871,3.94614 -1.77772,7.84743 -1.36256,11.73751 0.28741,2.84749 1.54352,5.45957 2.40576,8.17253 0.86224,2.71297 1.30933,5.81831 0,8.35191 -3.45962,6.88331 -0.87289,16.24417 2.22481,23.30685 a 29.86982,31.456965 0 0 1 1.63932,3.87887 c 0.91547,3.18381 0.14903,6.60304 0.39387,9.92139 a 5.9398999,6.2555191 0 0 1 -4.9925,-1.58069 c -0.46838,-0.51569 -0.8516,-1.12107 -1.30934,-1.65917 a 12.997523,13.688152 0 0 0 -4.44959,-2.92597 5.8440951,6.1546237 0 0 0 -3.1935,-0.77354 6.3869892,6.7263646 0 0 0 -3.03382,1.98428 29.74208,31.322438 0 0 1 -3.34253,2.67934 3.9599333,4.1703461 0 0 1 -1.70319,0.79594 1.5009425,1.5806957 0 0 1 -1.56481,-0.84078 1.8948068,1.9954882 0 0 1 -0.1171,-0.58296 84.244387,88.72075 0 0 1 -0.62805,-10.20165 c 0,-5.86315 -6.66376,-9.89896 -7.50472,-15.69485 -0.67063,-4.67482 0.57483,-9.43933 0.15968,-14.14779 -0.20225,-2.42149 -0.84095,-4.79814 -0.79838,-7.21963 0,-1.56949 0.34064,-3.10534 0.45774,-4.66362 a 33.127184,34.887411 0 0 0 -0.0745,-5.1905 l -0.33,-5.41472 c -0.31935,-5.34747 -0.67063,-10.80704 -2.67189,-15.69486 a 50.638179,53.328861 0 0 1 -4.15154,-18.02665 c -0.2129,-3.92372 -0.0745,-7.84743 -0.50032,-11.78235 -0.38322,-3.55377 -1.23482,-7.08511 -0.98998,-10.65008 0.20225,-2.75781 1.0645,-5.42594 1.26675,-8.18375 0.41515,-5.30261 -1.50094,-10.45949 -3.00188,-15.5379 -1.50095,-5.0784 -2.60803,-10.70613 -0.6387,-15.60516 a 4.8647568,5.1232477 0 0 1 1.36255,-2.08518 5.9398999,6.2555191 0 0 1 2.51222,-0.98653 194.92027,205.27744 0 0 1 55.5881,-3.73314 18.458399,19.439193 0 0 1 8.56921,2.81387 z"
       id="path94"
       inkscape:connector-curvature="0" />
    <ellipse
       style="display:inline;fill:#be6f72;stroke-width:1.09241354"
       cx="409.38309"
       cy="329.181"
       id="circle96"
       rx="17.053261"
       ry="17.959394" />
    <path
       style="display:inline;fill:#be6f72;stroke-width:1.09241354"
       d="m 406.08312,351.61342 a 6.0889297,6.4124676 0 0 1 0,3.12776 6.7276286,7.085104 0 0 1 -1.11772,1.97307 48.115318,50.671947 0 0 1 -5.46088,6.25551 9.8891882,10.414655 0 0 0 5.09895,5.30262 29.603695,31.1767 0 0 0 7.03634,2.11881 9.9211232,10.448286 0 0 0 3.70444,0.26905 9.8253184,10.347391 0 0 0 3.19351,-1.52464 l 9.47403,-5.97526 a 18.926778,19.932461 0 0 0 3.93864,-2.99322 9.6975785,10.212864 0 0 0 2.7464,-7.01784 1.8309368,1.9282246 0 0 0 -0.34063,-1.32286 2.2354462,2.3542276 0 0 0 -1.29869,-0.57174 c -3.33188,-0.77353 -5.96119,-3.62103 -7.45149,-6.84968 a 34.447162,36.277527 0 0 1 -2.58673,-10.39223 l -10.10209,5.6053 c -1.50094,0.84079 -2.99123,1.68159 -4.54541,2.41028 -0.98998,0.47085 -2.99123,0.86321 -3.69381,1.81611 -1.34126,1.76007 1.05385,5.65015 1.40514,7.76896 z"
       id="path98"
       inkscape:connector-curvature="0" />
    <path
       style="display:inline;fill:#3f3d56;stroke-width:1.09241354"
       d="m 399.5684,359.70748 a 11.230456,11.827191 0 0 0 -3.26802,4.6524 c -0.65999,2.24212 0,4.60756 0.59613,6.82726 a 193.41933,203.69675 0 0 1 6.38698,28.91216 c 0.89418,6.72636 1.22418,13.55362 1.66062,20.35846 0.89417,13.87873 2.19286,36.00847 3.92799,49.79752 6.387,0.30268 12.61431,-1.65917 18.94807,-2.37665 11.83722,-1.32286 24.02573,1.70401 35.61812,-1.12106 -2.81028,-11.69266 -5.62055,-31.65876 -8.43083,-43.34021 a 78.528032,82.700653 0 0 1 -2.57608,-14.06932 c -0.24484,-3.41923 -0.0958,-6.84967 -0.0532,-10.29133 0.0958,-6.72637 -0.25548,-13.45273 -0.60676,-20.17909 -0.40451,-7.84743 -0.80903,-15.69485 -2.57609,-23.37412 a 4.130253,4.3497158 0 0 0 -1.23482,-2.56723 c -1.0645,-0.81838 -2.44834,-0.5269 -3.7151,-0.34753 a 16.159082,17.017702 0 0 1 -11.04949,-2.75781 c -1.40514,-1.00895 -3.2893,-2.24212 -4.59863,-1.12106 a 4.5773423,4.8205613 0 0 0 -1.0645,2.38786 11.336906,11.939297 0 0 1 -6.66376,6.91695 33.350729,35.122834 0 0 1 -9.43146,2.04033 4.6305671,4.8766143 0 0 1 -2.92736,-0.34753 c -1.51159,-0.97532 -1.61804,-4.48425 -3.5235,-4.71966 -1.67125,-0.2018 -4.28992,3.58738 -5.41828,4.71966 z"
       id="path100"
       inkscape:connector-curvature="0" />
    <path
       style="display:inline;fill:#6c63ff;stroke-width:1.09241354"
       d="m 424.75442,387.08378 c -3.928,-3.95734 -5.65249,-9.69718 -8.51598,-14.57378 a 30.806578,32.443499 0 0 0 -7.35569,-8.52007 21.939307,23.105062 0 0 1 -4.00251,-3.57619 c -1.01127,-1.31163 -1.77771,-3.06049 -3.31059,-3.56497 a 4.0025132,4.2151885 0 0 0 -3.58736,1.04259 35.298761,37.174375 0 0 0 -2.66125,2.98202 c -4.51347,4.92146 -12.44398,5.6053 -16.02069,11.30029 a 8.7927551,9.2599619 0 0 0 -1.90545,4.20398 30.934318,32.578026 0 0 0 5.68442,23.43017 7.5579371,7.9595315 0 0 0 3.93864,3.36318 12.326889,12.981884 0 0 0 0.76644,6.16584 156.55575,164.87441 0 0 0 7.24923,20.79567 47.764034,50.301997 0 0 0 -1.42643,8.06043 c -0.74515,6.84968 -0.0532,13.80026 -0.75579,20.66115 -0.57483,5.6053 -2.129,11.06487 -2.18223,16.68139 0,0.89684 0.0746,1.96185 0.80903,2.42149 a 2.4483458,2.5784397 0 0 0 1.26675,0.28026 l 13.09332,0.4148 c 7.60053,0.23542 15.27556,0.47084 22.75898,-1.00896 a 9.4740339,9.9774408 0 0 0 2.86349,-0.95291 c 2.53351,-1.491 3.37447,-4.85419 3.77897,-7.84741 a 64.93439,68.384707 0 0 0 0.62807,-11.7263 c 1.5861,5.28019 3.47025,10.73976 8.2605,13.02672 2.5335,1.21075 5.42893,1.12107 8.20728,1.04258 a 154.52256,162.73319 0 0 0 17.87293,-1.93942 2.352541,2.4775443 0 0 0 2.60801,-2.88113 l 0.0639,-6.12099 c 0.12774,-12.43257 -2.79963,-24.31581 -3.93865,-36.69232 -0.36193,-3.90129 -0.32999,-7.84743 -1.23482,-11.67025 -0.37258,-1.60311 -0.91547,-3.1726 -1.24545,-4.78692 a 32.488485,34.214775 0 0 1 -0.53226,-4.78693 l -0.83031,-12.33167 c -0.39386,-5.7062 -0.95805,-11.21061 -1.3732,-16.9056 a 77.708368,81.837436 0 0 0 -2.27803,-16.43475 c -0.92611,-3.36318 -2.85285,-7.17479 -6.18474,-7.58958 -1.7777,-0.213 -3.50219,0.60537 -5.19474,1.17711 a 20.991904,22.107319 0 0 1 -12.77398,-0.056 17.990019,18.945927 0 0 0 -3.98123,-1.12106 3.9067084,4.114293 0 0 0 -3.64058,1.5919 5.4608757,5.7510417 0 0 0 -0.56419,2.82508 c -0.50031,11.1994 -1.42642,22.73511 -4.35379,33.62061 z"
       id="path102"
       inkscape:connector-curvature="0" />
    <path
       style="display:inline;fill:#3f3d56;stroke-width:1.09241354"
       d="m 407.62665,387.42009 c -4.90735,-5.44835 -9.94242,-10.9976 -16.26554,-14.46167 -2.49092,-1.36769 -5.32249,-2.39908 -8.07954,-1.88339 -2.75705,0.5157 -5.32249,3.03808 -5.19475,5.98646 0.0852,1.82733 1.13902,3.44166 1.46901,5.23536 0.38322,2.01791 -0.17032,4.17034 0.4258,6.121 a 9.8359633,10.358602 0 0 0 2.12899,3.44165 l 7.53665,9.4057 c 3.19349,3.92371 6.38699,7.90347 10.49595,10.61644 4.10896,2.71297 9.43146,3.97978 13.94493,2.05155 a 17.138421,18.049078 0 0 0 7.6431,-7.38779 c 1.87351,-3.13897 3.19349,-6.56942 4.94991,-9.80929 a 46.252446,48.710091 0 0 1 10.64498,-13.59846 c -2.21415,-0.60538 -4.9925,-1.45738 -6.38699,-3.36319 a 10.549177,11.109712 0 0 1 -1.01127,-1.92822 l -1.72448,-3.92371 a 4.2579927,4.4842431 0 0 0 -3.1935,1.26679 26.782775,28.205889 0 0 1 -2.37384,2.54482 c -1.50094,1.18832 -3.53413,1.51343 -4.89668,2.86991 a 12.976233,13.665731 0 0 0 -1.42643,1.88338 11.94367,12.578302 0 0 1 -8.6863,4.93266 z"
       id="path104"
       inkscape:connector-curvature="0" />
    <path
       style="display:inline;fill:#be6f72;stroke-width:1.09241354"
       d="m 437.72,363.97871 c 3.69382,-7.09631 3.5235,-15.60515 4.57735,-23.62075 a 10.240473,10.784605 0 0 1 2.03319,-5.86314 c 2.129,-2.5336 5.88667,-2.56723 9.10146,-2.24212 0.94741,0.11211 2.129,0.58295 2.07577,1.5807 a 1.9160967,2.0179094 0 0 1 -0.47902,0.9529 25.324412,26.670036 0 0 0 -5.25863,14.70831 c 1.67127,1.22196 4.258,-1.28922 5.86539,0 1.0645,0.9417 0.57484,2.80265 -0.0639,4.14793 q -2.2248,4.67482 -4.58799,9.28238 a 28.305007,29.809006 0 0 1 -4.86475,7.38779 c -1.35191,1.3677 -2.93801,2.44391 -4.31122,3.78919 -3.19349,3.15018 -5.12023,7.60079 -8.42019,10.67249 a 1.724487,1.8161184 0 0 1 -1.06449,0.57175 1.788357,1.8833821 0 0 1 -1.11772,-0.5269 16.137792,16.995281 0 0 1 -4.02381,-5.12325 c -1.2561,-2.44391 -1.06449,-3.16139 0.91548,-4.88783 3.70444,-3.08291 7.3131,-6.39004 9.62305,-10.82945 z"
       id="path106"
       inkscape:connector-curvature="0" />
    <path
       style="display:inline;fill:#6c63ff;stroke-width:1.09241354"
       d="m 401.45255,382.59954 c 0.6387,0.41479 1.42643,0.88563 2.129,0.53811 a 2.2141563,2.3318064 0 0 0 0.71322,-0.72869 25.058288,26.38977 0 0 0 3.02317,-5.53805 2.0225466,2.1300155 0 0 0 0.22355,-0.89684 c 0,-0.71748 -0.60677,-1.24438 -1.17095,-1.65917 a 43.388946,45.694437 0 0 0 -9.6763,-4.84298 c -2.81026,-1.12107 -5.74828,-2.09639 -8.72888,-1.81613 a 8.3243759,8.7666953 0 0 0 -5.8228,3.11655 c -2.129,2.88114 1.43707,3.75556 3.67251,4.79815 5.17346,2.47754 10.77272,3.9125 15.63748,7.02905 z"
       id="path108"
       inkscape:connector-curvature="0" />
    <path
       style="display:inline;opacity:0.1;stroke-width:1.09241354"
       d="m 398.09938,401.65757 a 1.5648124,1.6479594 0 0 0 0.44709,1.41253 c 0.30871,-1.5919 -0.0958,-3.27349 0.22355,-4.8766 0.46838,-2.41029 2.69318,-4.2264 2.88479,-6.64789 -4.07703,-0.8408 -3.52349,7.5111 -3.55543,10.11196 z"
       id="path110"
       inkscape:connector-curvature="0" />
    <polygon
       style="display:inline;opacity:0.2"
       points="548.25,370.36 547.02,360.5 588.91,358.04 588.91,367.89 "
       id="polygon112"
       transform="matrix(1.0644982,0,0,1.1210607,-41.101925,-87.393979)" />
    <path
       style="display:inline;fill:#3f3d56;stroke-width:1.09241354"
       d="m 394.033,331.84912 c 2.70383,-2.3206 1.13902,-7.186 2.96996,-10.30256 1.06449,-1.704 2.86349,-2.60085 4.63056,-3.36317 a 21.066419,22.185793 0 0 1 6.75957,-1.97307 7.8453517,8.2622179 0 0 1 6.38698,2.47755 c 0.69193,0.82958 1.16031,1.83854 1.80965,2.70175 a 6.9192383,7.286895 0 0 0 6.70633,2.44392 c 1.41579,-0.33633 2.8848,-1.46859 2.78899,-2.99324 a 4.0131582,4.2263991 0 0 0 -1.2774,-2.39907 l -3.04446,-3.55376 c -3.45962,-4.03582 -7.30246,-8.31827 -12.38011,-9.32723 -3.53414,-0.70627 -7.15343,0.29148 -10.55982,1.49101 -1.37321,0.48206 -2.91673,1.19953 -3.29995,2.66812 -0.25548,1.00896 0.12774,2.1076 -0.0958,3.12777 -0.43644,2.02912 -2.90608,2.71296 -4.05573,4.41698 -1.14967,1.70401 -0.79838,3.72192 -1.12837,5.6053 -0.33,1.88339 -1.28805,3.72193 -1.40514,5.67257 -0.0745,1.17711 0.48967,3.36318 1.74578,3.78918 1.2561,0.426 2.67189,-1.88338 3.44897,-0.48205 z"
       id="path114"
       inkscape:connector-curvature="0" />
    <path
       style="display:inline;fill:#fed253;stroke-width:1.09241354"
       d="m 425.05248,319.22597 a 31.934946,33.631823 0 0 0 -5.66313,-13.6321 22.684456,23.889805 0 0 0 -10.0808,-8.43037 14.434595,15.201584 0 0 0 -12.55043,1.04258 18.224209,19.19256 0 0 0 -6.2699,8.32949 c -2.75704,6.25551 -3.77897,13.90115 -0.57483,19.91004 1.27741,-1.63676 3.47027,-0.89686 5.40765,-1.49102 2.42706,-0.72869 4.48155,-2.4327 6.7915,-3.49771 6.97246,-3.23986 15.48845,-0.61658 22.93994,-2.23091 z"
       id="path116"
       inkscape:connector-curvature="0" />
    <path
       style="display:inline;opacity:0.1;stroke-width:1.09241354"
       d="m 391.54207,318.87845 c -0.24482,-2.01791 -0.4045,-4.36093 0.95805,-5.79589 a 0.69192383,0.7286895 0 0 1 0.56419,-0.26905 0.73450375,0.77353193 0 0 1 0.43644,0.40358 23.823469,25.08934 0 0 1 2.00126,4.1255 4.0663831,4.2824522 0 0 0 -4.25799,1.73764"
       id="path118"
       inkscape:connector-curvature="0" />
    <path
       style="display:inline;opacity:0.1;stroke-width:1.09241354"
       d="m 416.4194,313.18346 -0.38322,-4.00219 a 1.735132,1.8273291 0 0 1 0.0745,-0.98653 1.202883,1.2667987 0 0 1 1.55418,-0.44843 3.1934946,3.3631823 0 0 1 1.24545,1.31164 22.354462,23.542276 0 0 1 2.19287,4.56272 12.880428,13.564835 0 0 0 -5.1841,0.0672"
       id="path120"
       inkscape:connector-curvature="0" />
    <polygon
       style="display:inline;opacity:0.1"
       points="438.75,502.21 438.75,510.37 431.86,510.83 395.62,510.83 395.62,502.21 "
       id="polygon122"
       transform="matrix(1.0644982,0,0,1.1210607,-41.101925,-87.393979)" />
    <polygon
       style="display:inline;fill:#f1c0c0"
       points="281.04,360.52 305.06,360.52 438.75,502.21 438.75,510.83 395.62,510.83 281.04,367.3 "
       id="polygon124"
       transform="matrix(1.0644982,0,0,1.1210607,-41.101925,-87.393979)" />
    <polygon
       style="display:inline;opacity:0.1"
       points="281.04,360.52 305.06,360.52 438.75,502.21 438.75,510.83 395.62,510.83 281.04,367.3 "
       id="polygon126"
       transform="matrix(1.0644982,0,0,1.1210607,-41.101925,-87.393979)" />
    <polygon
       style="display:inline;opacity:0.1"
       points="281.04,360.52 396.24,502.21 438.75,502.21 438.75,510.83 395.62,510.83 281.04,367.3 "
       id="polygon128"
       transform="matrix(1.0644982,0,0,1.1210607,-41.101925,-87.393979)" />
    <path
       style="display:inline;fill:#6c63ff;stroke-width:1.09241354"
       d="m 274.05341,636.88975 a 3.1934946,3.3631823 0 0 1 -2.78899,3.95735 c -2.9593,1.05379 -6.09957,2.09638 -8.19664,4.48424 -2.09705,2.38786 -2.5122,6.81605 0,8.75548 a 8.0795413,8.5088513 0 0 0 4.258,1.22196 c 4.82218,0.34753 9.84661,0.28027 14.2217,-1.87217 3.12963,-1.52464 6.07828,-4.1255 9.51661,-3.89009 1.77771,0.11211 3.67252,0.98654 5.25863,0.13453 1.5861,-0.852 2.03319,-3.22865 2.04383,-5.21293 a 36.650673,38.598122 0 0 0 -1.75642,-12.20835 c -0.15968,-0.53811 -6.92989,-0.9529 -7.7389,-1.12106 l -8.20729,-1.12106 c -1.55417,-0.213 -4.90733,-1.44617 -6.1315,-0.0785 -1.22418,1.36769 -0.47903,5.32504 -0.47903,6.95057 z"
       id="path130"
       inkscape:connector-curvature="0" />
    <path
       style="display:inline;fill:#6c63ff;stroke-width:1.09241354"
       d="m 323.03098,608.90807 a 25.707631,27.073617 0 0 0 1.6819,5.87436 c 1.13901,3.04929 2.59738,6.28915 5.38636,7.76896 2.5335,1.33406 5.64185,0.852 8.21793,-0.4148 a 6.7702085,7.1299465 0 0 0 2.73576,-2.18606 8.2392161,8.6770104 0 0 0 1.06449,-5.03357 c 0,-4.3385 -0.24482,-8.82274 -2.12899,-12.67919 -1.61804,-3.36319 -4.43896,-6.25553 -4.48154,-9.97745 l -9.69757,1.97307 a 2.7676953,2.914758 0 0 0 -1.42643,0.59416 2.4589908,2.5896504 0 0 0 -0.61741,1.22196 31.690112,33.373979 0 0 0 -0.7345,12.85856 z"
       id="path132"
       inkscape:connector-curvature="0" />
    <path
       style="display:inline;fill:#6c63ff;stroke-width:1.09241354"
       d="m 207.22421,502.4073 c -0.4045,3.60982 -0.23419,7.47748 1.55417,10.59403 1.78836,3.11655 5.55668,5.1793 8.81405,3.93492 a 1.2880428,1.3564835 0 0 0 0.79837,-0.63901 1.5009425,1.5806957 0 0 0 -0.13838,-1.12105 15.711994,16.546857 0 0 1 0.32999,-12.4662 c 0.2129,-0.51568 0.67063,-1.12106 1.17095,-0.91927 a 1.0644982,1.1210607 0 0 1 0.47902,0.51569 5.5673255,5.8631478 0 0 1 0.74515,3.09413 10.921752,11.502084 0 0 0 -0.0852,2.97081 c 0.20225,0.96411 1.18159,1.87217 2.03319,1.45737 a 2.1289964,2.2421215 0 0 0 0.96869,-1.44616 c 2.37383,-7.23085 1.29869,-15.13432 0.2129,-22.70148 a 1.1283681,1.1883245 0 0 0 -1.26675,-1.24438 c -5.02443,-0.5269 -7.77084,-1.7937 -10.64498,3.12775 -2.46963,4.14793 -4.97121,9.85414 -4.97121,14.84285 z"
       id="path134"
       inkscape:connector-curvature="0" />
    <path
       style="display:inline;fill:#3f3d56;stroke-width:1.09241354"
       d="m 265.96323,484.0107 c -1.49031,6.52457 -2.99125,13.12762 -3.08705,19.83156 a 86.511768,91.108608 0 0 0 0.89418,12.47741 l 1.11773,9.70838 c 0.38321,3.2735 0.75579,6.53579 1.29867,9.77565 a 24.643133,25.952557 0 0 1 0.56419,5.07841 25.824727,27.196934 0 0 1 -0.75579,4.98871 55.353906,58.29516 0 0 0 -1.11772,10.42587 c -0.1171,5.60531 0.54289,11.21061 0.95805,16.81592 a 177.82442,187.27321 0 0 1 -0.37258,33.54213 11.94367,12.578302 0 0 0 1.74578,8.64338 10.559822,11.120923 0 0 1 1.54352,2.66813 c 0.79837,2.56723 -1.06449,5.13446 -1.54352,7.76894 a 7.4514873,7.8474253 0 0 0 6.19537,8.96849 c 8.51599,1.06501 17.26617,0.58295 24.9412,4.68604 0.80902,-2.48876 -0.95805,-5.31383 -0.14903,-7.84743 0.51095,-1.56948 1.91609,-2.58965 2.87415,-3.9125 a 10.815302,11.389977 0 0 0 1.83094,-6.83847 23.727664,24.988445 0 0 0 -1.57547,-9.27118 c -0.90481,-2.46633 -2.2035,-4.89903 -2.12899,-7.54473 0,-1.30043 0.43644,-2.66813 -0.0639,-3.86766 a 5.7376453,6.0425176 0 0 0 -1.3732,-1.80491 21.641248,22.791166 0 0 1 -5.56732,-13.28457 58.100312,61.187497 0 0 1 0.44709,-14.73074 c 0.5216,-4.64119 1.22417,-9.54023 4.0238,-13.16125 a 80.188649,84.449508 0 0 1 2.2461,-32.79103 c 0.27676,-0.98654 0.71321,-2.13002 1.67126,-2.36544 a 2.3844759,2.5111761 0 0 1 2.04383,0.85201 c 1.67126,1.64796 2.46964,4.03582 3.19349,6.32278 0.79838,2.47755 1.60739,5.12325 1.00063,7.65685 -0.25548,1.12106 -0.76644,2.10759 -1.06449,3.18381 a 8.9630748,9.4393317 0 0 0 0.31935,6.58062 6.0037698,6.3227827 0 0 1 0.76644,2.47755 6.5147289,6.8608919 0 0 1 -0.6387,2.15243 9.410164,9.9101772 0 0 0 0.88353,8.0156 27.559858,29.024263 0 0 0 4.9712,6.42367 22.354462,23.542276 0 0 0 0.69193,12.95946 1.5541674,1.6367487 0 0 1 0.13839,1.24438 c -0.19162,0.42601 -0.68128,0.58295 -1.0645,0.88564 -1.06451,0.91927 -0.40452,2.65691 0.3087,3.85645 a 83.967617,88.429273 0 0 0 6.46151,9.43933 c 2.12899,2.67933 1.93738,7.84743 5.10958,8.81154 a 9.5804837,10.089547 0 0 0 4.0451,0 c 3.12963,-0.50448 6.62118,-1.45738 8.15406,-4.37214 0.62805,-1.19954 0.88353,-2.65691 1.86287,-3.55376 0.97934,-0.89685 2.24609,-1.05381 2.78898,-2.13002 0.5429,-1.07622 -0.0639,-2.48876 0.1171,-3.73313 0.18096,-1.24438 1.21352,-2.24213 1.54352,-3.55376 0.78773,-3.02687 -2.56544,-5.51562 -3.02318,-8.60976 -0.65998,-4.48424 4.70509,-7.84741 4.48154,-12.33166 -0.46838,-9.74201 -0.76644,-19.52888 -1.24546,-29.2709 a 200.40243,211.0509 0 0 1 -0.25548,-26.22161 c 0.37257,-5.43715 1.0645,-11.13213 -0.83031,-16.18811 -2.72511,-7.12995 -10.24047,-11.13213 -17.511,-11.89446 -7.27051,-0.76232 -14.51975,1.0538 -21.7264,2.24212 a 137.32027,144.61683 0 0 1 -36.13971,0.79596 z"
       id="path136"
       inkscape:connector-curvature="0" />
    <ellipse
       style="display:inline;fill:#fbbebe;stroke-width:1.09241354"
       cx="287.57254"
       cy="358.90033"
       id="circle138"
       rx="17.053261"
       ry="17.959394" />
    <path
       style="display:inline;fill:#fbbebe;stroke-width:1.09241354"
       d="m 280.63201,380.21168 a 7.2705226,7.6568451 0 0 1 -6.95117,4.62998 c -0.61741,2.69054 0.86224,5.40351 2.55479,7.52232 a 30.316908,31.927811 0 0 0 29.01823,10.48191 14.3175,15.078267 0 0 0 5.71635,-2.51117 12.678173,13.351833 0 0 0 4.36444,-7.95954 37.576786,39.573445 0 0 0 0.41515,-9.36085 2.2993161,2.4214912 0 0 0 -0.46837,-1.72644 2.341896,2.4663337 0 0 0 -1.49031,-0.51569 c -3.59799,-0.33631 -7.35567,-0.48205 -10.51723,-2.343 -3.16157,-1.86097 -5.40766,-6.06494 -3.88542,-9.51781 -0.24484,0.5381 -6.46151,0.79595 -7.28117,0.90805 -2.56544,0.38117 -5.13089,0.80717 -7.68568,1.30044 a 13.976861,14.719528 0 0 0 -3.60864,0.71747 c -1.54353,0.8408 -0.9687,0.42601 -0.60677,1.95065 0.54289,2.33181 1.34127,4.00218 0.4258,6.42368 z"
       id="path140"
       inkscape:connector-curvature="0" />
    <path
       style="display:inline;fill:#3f3d56;stroke-width:1.09241354"
       d="m 293.60824,391.13081 a 28.241137,29.741743 0 0 1 -6.82343,-0.79595 9.5804837,10.089547 0 0 1 -5.59926,-3.93492 c -0.78773,-1.2556 -1.29869,-2.83629 -2.5548,-3.54256 -2.05448,-1.12106 -4.39637,0.77353 -6.0357,2.51118 a 21.928662,23.093852 0 0 1 -5.13088,4.34971 c -2.27803,1.2668 -4.93927,1.71523 -7.08957,3.20624 a 17.8197,18.766557 0 0 0 -4.25798,4.84298 l -15.08394,21.63647 c -6.057,8.69944 -11.32627,18.03787 -16.72327,27.21936 -4.67315,7.94832 -7.12149,17.09617 -10.64498,25.67229 a 2.7251154,2.8699156 0 0 0 -0.33,1.72644 c 0.12774,0.58295 0.79838,1.05379 1.26676,0.71747 -1.58611,1.65917 -0.19162,4.48424 -0.56419,6.81605 a 7.9411566,8.3631133 0 0 1 -2.53351,4.18156 20.012566,21.075943 0 0 1 7.02569,0.34753 21.534799,22.679059 0 0 1 6.64247,3.36318 c 1.28804,-0.213 1.17096,-2.62328 2.129,-3.52013 0.57483,-0.5269 1.42642,-0.45964 2.18222,-0.61658 2.84221,-0.58296 3.97058,-4.18156 6.1528,-6.21068 1.82029,-1.6928 4.39637,-2.24212 6.32313,-3.83402 3.12961,-2.58966 3.80025,-7.19722 5.43958,-11.02003 1.39449,-3.23988 3.58736,-6.06495 4.81152,-9.38329 0.79838,-2.15243 1.1816,-4.48424 2.32062,-6.46852 1.82029,-3.20623 5.24797,-4.91025 8.51598,-6.44609 2.06512,-0.97533 4.25799,-1.98428 6.48279,-1.82733 -0.11709,5.21293 -0.74515,10.34739 0.32999,15.437 0.37258,1.7937 0.89419,3.54256 1.34128,5.32504 2.03319,8.0268 2.51222,16.38991 2.60802,24.66333 a 71.257509,75.043808 0 0 1 14.90297,-1.88338 c 3.94929,-0.12331 7.88793,0.41479 11.83722,0.33632 4.68379,-0.0896 9.31436,-1.04258 13.99815,-1.3789 4.6838,-0.33631 9.58048,0 13.72138,2.24212 a 130.35845,137.2851 0 0 1 0.56419,-21.30015 l 1.12836,-11.14334 a 65.008905,68.463181 0 0 1 1.41579,-9.61871 c 0.6174,-2.55602 1.51159,-5.02235 2.19287,-7.56716 2.39511,-8.96848 1.95867,-18.54235 1.50094,-27.88078 -0.23419,-4.79814 -1.99062,-9.51781 -4.05574,-13.78904 a 35.437145,37.320113 0 0 0 -2.5548,-4.57394 25.154093,26.490666 0 0 0 -21.99253,-10.87429 4.4496024,4.686034 0 0 0 -1.57546,0.35875 5.2479761,5.5268296 0 0 0 -2.0119,2.52239 26.080206,27.465989 0 0 1 -9.27178,10.13438 z"
       id="path142"
       inkscape:connector-curvature="0" />
    <path
       style="display:inline;fill:#3f3d56;stroke-width:1.09241354"
       d="m 272.57376,364.85314 c 0.47903,-1.12105 1.76707,-1.53585 2.55479,-2.4327 1.51159,-1.704 0.83032,-4.42819 1.06451,-6.72636 0.38321,-3.36319 3.03381,-6.17704 6.06763,-7.37658 a 19.608057,20.64994 0 0 1 9.58048,-0.639 9.2717793,9.7644394 0 0 1 4.32187,1.51343 c 0.55354,0.426 1.06449,0.97532 1.5861,1.36769 a 4.2579927,4.4842431 0 0 0 5.79088,-1.42375 c -3.76833,-4.77572 -7.94117,-9.82049 -13.66816,-11.28908 a 28.038883,29.528741 0 0 0 -5.97184,-0.59416 c -2.6506,-0.056 -5.38636,-0.10091 -7.83471,0.96411 -3.33187,1.44617 -5.67378,4.77572 -6.87665,8.36312 a 38.609349,40.660874 0 0 0 -1.67127,11.2106 40.099647,42.230359 0 0 0 0,7.62321 20.012566,21.075943 0 0 0 3.55542,9.6075 2.7570503,2.9035474 0 0 0 1.0645,1.04258 c 4.85411,2.24212 0.0426,-10.28013 0.43645,-11.21061 z"
       id="path144"
       inkscape:connector-curvature="0" />
    <path
       style="display:inline;fill:#fed253;stroke-width:1.09241354"
       d="m 302.98647,346.36685 c -0.58547,-5.28019 -4.16219,-9.64111 -7.96244,-13.15004 a 29.35886,30.918856 0 0 0 -10.69821,-6.78242 c -4.01316,-1.24437 -8.63308,-0.97532 -12.07141,1.54706 -2.76769,2.02913 -4.52412,5.25779 -5.87603,8.50886 a 25.430862,26.782142 0 0 0 -2.56544,12.33167 c 0.26612,4.23761 2.2248,8.53127 5.71635,10.67249 1.25611,-1.95064 3.43834,-2.95959 5.53539,-3.75555 a 271.03189,285.43328 0 0 1 27.92179,-9.37207 z"
       id="path146"
       inkscape:connector-curvature="0" />
    <path
       style="display:inline;opacity:0.1;stroke-width:1.09241354"
       d="m 270.70025,344.16957 c 0.34063,0 0.56417,0.36995 0.7345,0.67264 a 26.985029,28.418891 0 0 1 2.2248,4.48424 c -1.24546,0.28027 -3.3851,0.59417 -4.00252,-0.56053 -0.32999,-0.58295 0.0639,-4.65239 1.04322,-4.59635 z"
       id="path148"
       inkscape:connector-curvature="0" />
    <path
       style="display:inline;opacity:0.1;stroke-width:1.09241354"
       d="m 294.96015,341.63598 c -0.25547,0.25784 -0.55354,-0.26906 -0.55354,-0.65022 v -4.34971 a 0.60676397,0.63900464 0 0 1 0.0745,-0.34753 0.50031415,0.52689856 0 0 1 0.35129,-0.17937 c 0.86224,-0.10091 1.57545,0.67263 2.129,1.41253 a 22.482202,23.676804 0 0 1 2.18222,3.82282 l -4.50284,-0.14574"
       id="path150"
       inkscape:connector-curvature="0" />
    <path
       style="display:inline;fill:#3f3d56;stroke-width:1.09241354"
       d="m 351.15501,413.66413 a 27.857918,29.338161 0 0 1 3.12963,-2.70176 c 2.94866,-2.07395 6.51473,-2.89234 9.82532,-4.21519 3.31058,-1.32285 6.6744,-3.46407 7.96244,-6.93936 a 15.648124,16.479594 0 0 0 0.61741,-6.72637 6.3869892,6.7263646 0 0 0 -0.46837,-2.76902 5.2266862,5.5044084 0 0 0 -1.68192,-1.92822 c -4.49218,-3.49771 -10.51723,-3.77797 -16.0952,-3.41923 a 100.88249,106.24293 0 0 0 -35.56489,9.34964 3.0870448,3.2510762 0 0 0 -1.4903,1.12107 3.0444648,3.2062338 0 0 0 -0.28741,1.55827 24.483458,25.784397 0 0 0 1.20288,9.76444 c 1.46901,3.99097 4.49219,7.20842 5.75894,11.27787 0.57483,1.82732 0.76644,3.76676 1.26675,5.6053 a 7.4514873,7.8474253 0 0 0 2.99123,4.68604 c 4.20477,2.6457 8.17535,-0.90806 11.09208,-3.66587 z"
       id="path152"
       inkscape:connector-curvature="0" />
    <path
       style="display:inline;fill:#6c63ff;stroke-width:1.09241354"
       d="m 296.08853,429.19082 -5.39701,-12.39893 a 41.206725,43.396262 0 0 1 -2.04384,-5.30261 c -0.6174,-2.16365 -0.91547,-4.40577 -1.49029,-6.58064 -1.89482,-7.24205 -6.67441,-13.27335 -9.00566,-20.36967 a 3.6725188,3.8676597 0 0 0 -0.87288,-1.71522 2.8422102,2.9932322 0 0 0 -2.37384,-0.44843 c -3.25736,0.59417 -5.80152,3.20624 -8.78211,4.68604 -1.38385,0.67264 -2.87414,1.12106 -4.25799,1.89459 a 5.322491,5.6053038 0 0 0 -2.85286,3.57619 c -0.33,1.71522 0.47903,3.36318 1.1603,5.03356 2.89543,6.88331 3.55542,14.57379 3.68317,22.10731 0.0958,5.0672 -0.14903,10.50434 -2.99124,14.5738 -5.46087,7.84743 -1.96933,19.37192 0.0745,28.86731 0.24484,1.12106 0.53225,2.33181 0.70257,3.52014 a 30.732063,32.365025 0 0 1 0.24484,4.48424 c 0,5.03356 -0.26613,10.22407 -2.26738,14.78679 a 15.711994,16.546857 0 0 0 6.38698,1.9058 q 9.27178,1.24438 18.61808,1.74886 a 20.289336,21.367418 0 0 0 5.84409,-0.3139 10.644982,11.210607 0 0 0 7.86665,-10.9864 c 0.34064,3.10535 0.96869,6.47973 3.10833,8.63217 2.13964,2.15244 5.25862,2.47754 8.1647,2.6457 a 151.79744,159.86326 0 0 0 24.58991,-0.72869 4.2579927,4.4842431 0 0 0 1.51159,-0.36995 c 1.57545,-0.82958 1.66061,-3.11655 1.53288,-4.95509 -0.23419,-3.44165 -0.47903,-6.88331 -0.87289,-10.30254 a 40.035777,42.163096 0 0 1 -0.51096,-6.59184 36.011974,37.925486 0 0 1 1.0645,-6.72637 c 1.42642,-6.99541 2.55479,-14.13658 2.07576,-21.30015 a 34.127812,35.941208 0 0 1 -0.20225,-5.25778 c 0.27677,-3.95733 2.25674,-7.7241 1.88417,-11.65903 -1.0645,-11.56934 -1.92674,-23.44138 -4.9925,-34.60714 -0.55354,-1.99549 -1.25611,-4.13672 -2.90608,-5.2802 -2.129,-1.50222 -5.12024,-0.71747 -7.55794,-1.67038 a 18.905488,19.910039 0 0 1 -3.24672,-2.02911 14.902975,15.694851 0 0 0 -7.33439,-2.37666 c -1.95868,-0.0785 -4.1409,0.38116 -5.32249,2.04033 a 7.7282569,8.1389012 0 0 0 -1.0645,3.0605 c -1.54353,6.83847 -3.35317,13.59847 -5.16282,20.35846 l -1.73513,6.47973 -4.65186,17.39887 c -0.45773,1.84975 -0.14902,2.42149 -0.6174,4.17034 z"
       id="path154"
       inkscape:connector-curvature="0" />
    <polyline
       style="display:inline;fill:#f1c0c0"
       points="342.33 400.25 439.06 501.9 439.06 510.52 395.93 510.52 323.24 415.65"
       id="polyline156"
       transform="matrix(1.0644982,0,0,1.1210607,-41.101925,-87.393979)" />
    <polyline
       style="display:inline;opacity:0.1"
       points="342.33 400.25 439.06 501.9 439.06 510.52 395.93 510.52 323.24 415.65"
       id="polyline158"
       transform="matrix(1.0644982,0,0,1.1210607,-41.101925,-87.393979)" />
    <polygon
       style="display:inline;opacity:0.1"
       points="439.06,501.9 439.06,510.52 395.93,510.52 323.24,415.65 324.78,414.31 325.09,414.42 396.55,501.9 "
       id="polygon160"
       transform="matrix(1.0644982,0,0,1.1210607,-41.101925,-87.393979)" />
    <path
       style="display:inline;fill:#6c63ff;stroke-width:1.09241354"
       d="m 316.47366,379.47178 c -3.72574,1.71522 -7.86663,3.9125 -8.98436,8.03801 a 4.3857326,4.6187704 0 0 0 -0.13839,2.24212 4.3431526,4.5739279 0 0 0 3.90671,3.15018 12.773979,13.452729 0 0 0 5.12024,-0.98653 l 21.98188,-7.64564 c 0.59613,-0.20179 1.2774,-0.50448 1.42643,-1.12106 a 1.8309368,1.9282246 0 0 0 -0.21289,-1.12106 c -0.68129,-1.74886 -1.35192,-5.32504 -2.77834,-6.547 -1.17095,-0.98653 -3.49156,-0.639 -4.90735,-0.61658 -5.45022,0.0449 -10.57046,2.36544 -15.41393,4.60756 z"
       id="path162"
       inkscape:connector-curvature="0" />
    <path
       style="display:inline;fill:#3f3d56;stroke-width:1.09241354"
       d="m 336.07107,385.17797 a 35.351985,37.230428 0 0 1 10.91111,1.7825 19.437737,20.47057 0 0 1 9.03759,6.50215 6.7702085,7.1299465 0 0 1 1.42643,2.93718 c 0.2129,1.12105 3.68317,1.7937 2.91673,2.55601 2.33124,-0.39236 1.7777,0.76232 4.14089,0.73991 2.36318,-0.0224 4.91799,-0.66143 6.33377,-2.6457 a 8.2285711,8.6657997 0 0 0 1.24546,-5.482 8.8672699,9.3384362 0 0 0 -0.70256,-3.87886 c -1.06451,-2.35423 -3.51285,-3.62103 -5.76959,-4.70846 l -19.01193,-9.15907 a 12.624948,13.295781 0 0 0 -3.51285,-1.31163 13.135908,13.83389 0 0 0 -3.09769,0.0785 l -8.61179,1.04258 a 12.912363,13.598467 0 0 1 5.88667,11.96172"
       id="path164"
       inkscape:connector-curvature="0" />
  </g>
</svg>
